<?xml version="1.0" standalone="no"?>
<!DOCTYPE svg PUBLIC "-//W3C//DTD SVG 20010904//EN"
 "http://www.w3.org/TR/2001/REC-SVG-20010904/DTD/svg10.dtd">
<svg version="1.0" xmlns="http://www.w3.org/2000/svg"
 width="58.000000pt" height="58.000000pt" viewBox="0 0 58.000000 58.000000"
 preserveAspectRatio="xMidYMid meet">

<g transform="translate(0.000000,58.000000) scale(0.100000,-0.100000)"
fill="#000000" stroke="none">
<path d="M255 481 c-69 -17 -105 -59 -105 -121 0 -17 -7 -47 -15 -67 -20 -47
-19 -63 4 -63 16 0 20 -8 23 -37 3 -33 7 -39 36 -48 21 -6 32 -15 32 -27 0
-10 5 -18 11 -18 6 0 9 14 7 33 -3 28 -7 32 -35 35 -31 3 -33 6 -33 42 0 25
-6 42 -16 48 -13 7 -14 15 -5 48 5 21 13 56 16 76 10 66 88 101 172 79 54 -15
84 -50 90 -105 8 -68 -4 -113 -43 -155 -26 -29 -34 -47 -34 -75 0 -22 4 -35
10 -31 6 3 10 19 10 34 0 16 10 37 24 50 38 36 56 83 56 149 0 66 -26 118 -70
138 -35 17 -100 24 -135 15z"/>
<path d="M249 391 c-50 -51 -33 -118 36 -141 30 -10 40 -9 68 7 60 35 44 133
-23 133 -31 0 -60 -27 -60 -56 0 -42 51 -60 69 -25 13 24 2 36 -14 14 -14 -19
-35 -9 -35 17 0 37 73 38 83 1 9 -36 -15 -66 -55 -69 -69 -6 -101 56 -53 103
13 14 33 25 45 25 11 0 20 5 20 10 0 22 -53 9 -81 -19z"/>
</g>
</svg>
