<?xml version="1.0" standalone="no"?>
<!DOCTYPE svg PUBLIC "-//W3C//DTD SVG 20010904//EN"
 "http://www.w3.org/TR/2001/REC-SVG-20010904/DTD/svg10.dtd">
<svg version="1.0" xmlns="http://www.w3.org/2000/svg"
 width="58.000000pt" height="58.000000pt" viewBox="0 0 58.000000 58.000000"
 preserveAspectRatio="xMidYMid meet">

<g transform="translate(0.000000,58.000000) scale(0.100000,-0.100000)"
fill="#000000" stroke="none">
<path d="M271 451 l-1 -43 -18 22 c-42 52 -102 -8 -144 -143 -10 -34 -18 -82
-16 -107 3 -38 6 -45 26 -48 13 -2 33 3 45 11 12 8 37 18 55 22 42 9 56 36 57
115 0 50 3 65 14 65 11 0 15 -16 16 -66 1 -36 7 -74 12 -84 11 -20 99 -56 143
-58 24 -2 25 0 24 63 -1 69 -28 153 -67 212 -28 41 -68 49 -90 17 -15 -21 -16
-21 -20 17 -2 24 -4 16 -3 -19 1 -45 -2 -57 -14 -57 -12 0 -14 10 -12 44 2 24
2 52 -1 62 -3 11 -5 -1 -6 -25z m-32 -40 c16 -28 23 -120 14 -169 -8 -41 -11
-44 -68 -67 -33 -14 -64 -25 -69 -25 -15 0 0 111 23 172 37 95 77 132 100 89z
m168 -20 c45 -67 83 -241 52 -241 -6 0 -20 6 -32 12 -12 7 -38 17 -57 23 -33
10 -35 13 -44 71 -5 40 -4 79 4 118 10 50 14 57 33 54 12 -2 32 -18 44 -37z"/>
<path d="M195 350 c-26 -6 -28 -8 -11 -15 18 -8 17 -10 -10 -32 -22 -17 -25
-23 -11 -23 21 0 22 -9 1 -38 -13 -20 -13 -22 0 -22 8 0 22 12 30 28 11 19 15
22 16 10 0 -24 12 -23 28 2 11 18 10 20 -8 20 -24 0 -26 26 -4 58 16 23 16 24
-31 12z"/>
<path d="M356 335 c15 -24 13 -58 -3 -53 -10 4 -12 -12 -6 -29 7 -19 23 -16
23 5 1 12 5 9 16 -10 8 -16 22 -28 30 -28 13 0 13 2 0 22 -21 29 -20 38 2 38
13 1 11 6 -11 24 -26 21 -27 24 -10 31 16 7 15 9 -7 15 -46 14 -52 12 -34 -15z"/>
</g>
</svg>
