<?xml version="1.0" standalone="no"?>
<!DOCTYPE svg PUBLIC "-//W3C//DTD SVG 20010904//EN"
 "http://www.w3.org/TR/2001/REC-SVG-20010904/DTD/svg10.dtd">
<svg version="1.0" xmlns="http://www.w3.org/2000/svg"
 width="58.000000pt" height="58.000000pt" viewBox="0 0 58.000000 58.000000"
 preserveAspectRatio="xMidYMid meet">

<g transform="translate(0.000000,58.000000) scale(0.100000,-0.100000)"
fill="#000000" stroke="none">
<path d="M225 441 c-22 -44 -11 -59 43 -63 l47 -3 3 -48 c2 -32 0 -47 -7 -42
-6 3 -19 1 -29 -4 -13 -7 -29 -7 -49 1 -65 24 -129 -30 -119 -101 9 -60 28
-71 123 -71 49 0 97 6 117 14 39 16 116 83 116 100 0 18 -60 139 -86 174 -27
35 -91 72 -123 72 -13 0 -26 -12 -36 -29z m119 -39 c23 -22 96 -155 96 -176 0
-8 -42 -46 -62 -57 -14 -7 -16 -6 -12 6 8 19 -15 19 -40 0 -11 -8 -32 -15 -48
-15 -18 0 -28 -5 -28 -15 0 -20 -59 -20 -88 1 -44 31 -17 114 37 114 21 0 30
-6 34 -21 6 -21 6 -21 37 2 26 20 34 21 51 11 11 -7 23 -11 27 -8 11 7 -2 134
-15 147 -6 6 -30 12 -52 13 -38 1 -51 12 -34 30 14 14 67 -4 97 -32z"/>
</g>
</svg>
